# xmcd
#
# Track frame offsets: 
#        150
#        20837
#        34042
#        51802
#        62555
#        78270
#        97035
#        104582
#        125050
#        146055
#
# Disc length: 2055 seconds
#
# Revision: 2
# Processed by: cddbd v1.5.2PL0 Copyright (c) Steve Scherf et al.
# Submitted via: ExactAudioCopy v0.99pb4
#
DISCID=8d08050a
DTITLE=Almir Sater - Instrumental Dois
DYEAR=1900
DGENRE=
TTITLE0=Fronteira
TTITLE1=Europa
TTITLE2=Rasta
TTITLE3=Mazurca - Choro
TTITLE4=Encontro das Águas
TTITLE5=Moura
TTITLE6=Marionete
TTITLE7=Segredo
TTITLE8=Cristal
TTITLE9=Beira Mar
EXTD=
EXTT0=
EXTT1=
EXTT2=
EXTT3=
EXTT4=
EXTT5=
EXTT6=
EXTT7=
EXTT8=
EXTT9=
PLAYORDER=
